<mxfile host="app.diagrams.net" modified="2024-07-23T10:11:01.414Z" agent="Mozilla/5.0 (Macintosh; Intel Mac OS X 10_15_7) AppleWebKit/537.36 (KHTML, like Gecko) Chrome/116.0.0.0 Safari/537.36" version="24.6.4" etag="G_qMIMqdZMZNpWNe_W4q" type="github">
  <diagram name="Page-1" id="QgI2xpA7PfEl6okA9JIq">
    <mxGraphModel>
      <root>
        <mxCell id="0" />
        <mxCell id="1" parent="0" />
      </root>
    </mxGraphModel>
  </diagram>
</mxfile>
